<svg width="21" height="20" viewBox="0 0 21 20" fill="none" xmlns="http://www.w3.org/2000/svg">
<path d="M18.8346 9.99996C18.8346 5.39762 15.1036 1.66663 10.5013 1.66663C5.89896 1.66663 2.16797 5.39762 2.16797 9.99996C2.16797 14.1593 5.21536 17.6069 9.19922 18.2321V12.4088H7.08333V9.99996H9.19922V8.16402C9.19922 6.07548 10.4434 4.92183 12.3469 4.92183C13.2586 4.92183 14.2122 5.08459 14.2122 5.08459V7.13538H13.1615C12.1262 7.13538 11.8034 7.77776 11.8034 8.43681V9.99996H14.1146L13.7451 12.4088H11.8034V18.2321C15.7872 17.6069 18.8346 14.1594 18.8346 9.99996Z" fill="#1877F2"/>
<path d="M13.7438 12.4089L14.1133 10H11.8021V8.43685C11.8021 7.77773 12.1249 7.13542 13.1602 7.13542H14.2109V5.08464C14.2109 5.08464 13.2573 4.92188 12.3455 4.92188C10.4421 4.92188 9.19792 6.07552 9.19792 8.16406V10H7.08203V12.4089H9.19792V18.2321C9.62866 18.2996 10.064 18.3334 10.5 18.3333C10.936 18.3334 11.3713 18.2996 11.8021 18.2321V12.4089H13.7438Z" fill="white"/>
</svg>
