<svg width="21" height="20" viewBox="0 0 21 20" fill="none" xmlns="http://www.w3.org/2000/svg">
<path d="M7.97267 2.21482C6.30742 2.79251 4.8713 3.88899 3.87527 5.3432C2.87923 6.79742 2.37579 8.53271 2.43888 10.2942C2.50196 12.0557 3.12826 13.7505 4.22577 15.1297C5.32328 16.509 6.83416 17.4999 8.53648 17.957C9.91658 18.3131 11.3625 18.3288 12.75 18.0026C14.0069 17.7202 15.169 17.1163 16.1224 16.25C17.1147 15.3207 17.835 14.1386 18.2057 12.8307C18.6088 11.4084 18.6805 9.91264 18.4154 8.45831H10.6654V11.6731H15.1537C15.064 12.1859 14.8717 12.6753 14.5885 13.112C14.3053 13.5487 13.9368 13.9238 13.5052 14.2148C12.9572 14.5774 12.3393 14.8213 11.6914 14.931C11.0416 15.0518 10.3751 15.0518 9.72528 14.931C9.06667 14.7948 8.44364 14.523 7.89585 14.1328C7.01584 13.5099 6.35507 12.6249 6.00783 11.6041C5.65472 10.5643 5.65472 9.43696 6.00783 8.39711C6.255 7.66822 6.6636 7.00458 7.20314 6.4557C7.82058 5.81605 8.60227 5.35882 9.46246 5.13419C10.3226 4.90955 11.2281 4.92618 12.0794 5.18226C12.7445 5.38642 13.3527 5.74312 13.8555 6.22393C14.3616 5.72046 14.8668 5.21568 15.3711 4.70961C15.6315 4.43747 15.9154 4.17836 16.1719 3.89971C15.4044 3.18549 14.5035 2.62973 13.5209 2.2643C11.7314 1.61454 9.77343 1.59708 7.97267 2.21482Z" fill="white"/>
<path d="M7.97005 2.21484C9.77066 1.59668 11.7286 1.61369 13.5182 2.26302C14.5011 2.63094 15.4015 3.18937 16.168 3.90624C15.9076 4.18489 15.6328 4.44531 15.3672 4.71614C14.862 5.22048 14.3572 5.72308 13.8529 6.22395C13.3501 5.74314 12.7419 5.38644 12.0768 5.18229C11.2257 4.92531 10.3203 4.90771 9.45992 5.13143C8.59951 5.35515 7.81733 5.81153 7.19922 6.45052C6.65968 6.99939 6.25108 7.66304 6.00391 8.39192L3.30469 6.30208C4.27084 4.38614 5.94368 2.9206 7.97005 2.21484Z" fill="#E33629"/>
<path d="M2.59114 8.37244C2.73622 7.65342 2.97708 6.95711 3.30729 6.30212L6.00651 8.39718C5.6534 9.43703 5.6534 10.5644 6.00651 11.6042C5.1072 12.2987 4.20746 12.9966 3.30729 13.698C2.48066 12.0525 2.22855 10.1778 2.59114 8.37244Z" fill="#F8BD00"/>
<path d="M10.6646 8.45703H18.4146C18.6797 9.91137 18.608 11.4071 18.205 12.8294C17.8342 14.1373 17.114 15.3195 16.1217 16.2487C15.2506 15.569 14.3756 14.8945 13.5045 14.2148C13.9364 13.9235 14.305 13.548 14.5882 13.1108C14.8715 12.6737 15.0635 12.1838 15.1529 11.6706H10.6646C10.6633 10.6003 10.6646 9.52865 10.6646 8.45703Z" fill="#587DBD"/>
<path d="M3.30469 13.698C4.20486 13.0036 5.1046 12.3056 6.00391 11.6042C6.35183 12.6253 7.01355 13.5104 7.89453 14.1329C8.44402 14.5213 9.0684 14.7909 9.72786 14.9246C10.3777 15.0454 11.0442 15.0454 11.694 14.9246C12.3419 14.8149 12.9597 14.571 13.5078 14.2084C14.3789 14.8881 15.2539 15.5626 16.125 16.2423C15.1717 17.1091 14.0097 17.7135 12.7526 17.9962C11.3651 18.3224 9.91917 18.3067 8.53906 17.9506C7.44753 17.6592 6.42796 17.1454 5.54427 16.4415C4.60893 15.6989 3.84499 14.7631 3.30469 13.698Z" fill="#319F43"/>
</svg>
