<svg width="113" height="108" viewBox="0 0 113 108" fill="none" xmlns="http://www.w3.org/2000/svg">
<g clip-path="url(#clip0_12001_24384)">
<rect width="113" height="108" rx="5" fill="#FFCB05"/>
<path d="M17.9722 0.0370575L94.8015 0C104.781 0.592919 112.749 8.70586 112.993 18.7273L113 89.0081C112.759 99.2849 105.264 107.377 94.9338 107.993L18.1932 108C8.12218 107.455 0.557002 99.8778 0 89.8021V18.1899C0.476296 8.44116 8.28888 0.701445 17.9722 0.0370575Z" fill="#FFCB05"/>
<path d="M58.2994 82.3393C54.6933 81.7672 50.5324 80.623 48.3133 79.1927C46.0941 78.0484 42.7654 76.046 39.7141 72.3272C42.7654 70.0387 47.4811 65.1757 49.9776 62.029C51.3646 60.5987 52.1968 58.8824 52.4742 57.7381C52.7516 56.5939 53.029 54.5915 53.029 51.7309V28.2739L58.2994 23.6969V82.3393ZM90.1995 71.469L88.8125 72.6133C84.6517 76.3321 79.936 78.6206 76.0525 80.3369C72.169 82.0533 67.7307 82.9115 63.0151 82.9115H60.5185V25.6993C64.9568 27.9878 67.176 29.1321 71.8916 29.1321C78.549 29.1321 84.6517 24.269 89.3673 17.1175L87.4256 16.2593C84.9291 19.406 82.1551 20.8363 78.8264 20.8363C74.9429 20.8363 69.9499 18.5478 64.1247 14.543L41.1011 34.2812V58.0242C41.1011 64.3175 40.8237 66.3199 40.5463 67.4642C39.9915 68.6084 38.0498 70.6109 38.0498 70.6109C33.3341 64.6036 31.115 57.7381 31.115 50.5866C31.115 44.5793 32.7793 39.1442 35.8306 33.9951C38.3272 29.9902 41.3785 25.9854 46.3715 22.2666L46.9263 21.6945L45.5394 20.2642V20.8363C37.7724 25.6993 31.6698 29.9902 28.0637 35.1393C23.6254 41.7187 21.4062 48.8702 21.4062 56.5939C21.4062 62.8872 23.0706 68.8945 26.1219 74.9018C29.1732 80.909 33.6115 85.486 39.4367 88.6327C44.9846 91.7794 51.0872 93.4957 57.4672 93.4957C61.6281 93.4957 66.0664 92.6375 70.5047 91.2072C74.9429 89.7769 78.549 87.7745 81.6003 85.2C84.6517 82.6254 87.4256 79.1927 90.4769 74.3296L91.5865 72.6133L90.1995 71.469Z" fill="black"/>
</g>
<defs>
<clipPath id="clip0_12001_24384">
<rect width="113" height="108" rx="5" fill="white"/>
</clipPath>
</defs>
</svg>
