<svg width="219" height="36" viewBox="0 0 219 36" fill="none" xmlns="http://www.w3.org/2000/svg">
<path d="M144.351 12.8756C143.359 13.2506 141.873 13.8756 140.51 14.3756V27.7509C140.51 29.2509 140.386 30.251 140.262 30.626C140.138 31.126 139.766 31.501 139.271 31.751V32.376C141.005 32.751 142.492 33.126 143.483 33.501C144.475 33.8761 145.961 34.5011 147.448 35.3761L155.254 29.876L154.759 29.2509L151.413 31.501L145.838 29.2509V25.0008L156.122 17.7507L149.679 10.2505C147.077 11.3755 144.97 12.5005 144.351 12.8756ZM145.714 13.0006L151.661 19.7507L145.714 24.0008V13.0006Z" fill="black"/>
<path d="M181.646 10.1243L187.717 13.6244L184.992 17.7495L179.911 14.7494V29.3748L184.62 31.6248L187.098 29.8748L187.717 30.6248L181.027 35.4999C179.54 34.6249 178.053 33.9999 177.062 33.6249C176.07 33.2499 174.707 32.8749 173.097 32.6249V32.1249C173.592 31.7498 173.964 31.3748 174.088 30.8748C174.336 30.2498 174.46 29.3748 174.46 28.1248V14.7494C177.681 13.6244 179.664 12.2494 181.646 10.1243Z" fill="black"/>
<path d="M210.392 10.1243C208.285 12.1244 205.188 13.6244 202.462 14.6244V27.7498C202.462 28.9998 202.338 29.8748 202.09 30.3748C201.966 30.7498 201.594 31.2498 200.975 31.7499L201.223 32.2499C202.586 32.2499 203.825 32.4999 204.94 32.8749C206.427 33.3749 207.913 33.9999 210.02 35.375C210.763 34.7499 212.002 33.8749 212.87 33.3749C213.861 32.7499 215.843 31.8749 218.198 30.8748V13.2494C215.1 12.4994 212.622 11.6244 210.392 10.1243ZM209.276 14.9995C210.02 15.2495 211.135 15.7495 212.994 16.6245V31.3749L207.666 29.1248V14.3744C208.533 14.4994 208.781 14.7494 209.276 14.9995Z" fill="black"/>
<path d="M93.4263 10.1243C91.3199 12.1244 88.2222 13.6244 85.4963 14.6244V27.7498C85.4963 28.9998 85.3724 29.8748 85.1246 30.3748C85.0006 30.7498 84.6289 31.2498 84.0094 31.7499L84.2572 32.2499C85.6202 32.2499 86.8592 32.4999 87.9744 32.8749C89.4613 33.3749 90.9481 33.9999 93.0545 35.375C93.798 34.7499 95.037 33.8749 95.9044 33.3749C96.8956 32.7499 98.8781 31.8749 101.232 30.8748V13.2494C98.0108 12.4994 95.5327 11.6244 93.4263 10.1243ZM92.3111 14.9995C93.0545 15.2495 94.1697 15.7495 96.0283 16.6245V31.3749L90.7003 29.1248V14.3744C91.4438 14.4994 91.6916 14.7494 92.3111 14.9995Z" fill="black"/>
<path d="M43.2444 30.5007L42.0054 31.5007L39.2794 29.3756V6.12508L41.138 4.25003L36.5535 0.499939L32.0929 4.25003L33.9515 6.12508V26.2506C33.9515 28.1256 33.9515 28.8756 33.8276 29.0006C33.7037 29.5006 33.5798 30.0007 33.332 30.3757C33.0841 30.7507 32.7124 31.1257 32.3407 31.3757V31.7507C33.4559 32.1257 34.6949 32.6257 35.3145 33.0007C36.0579 33.3757 37.0491 34.2508 38.4121 35.3758L43.7401 31.2507L43.2444 30.5007Z" fill="black"/>
<path d="M68.8912 30.3752C67.2805 30.1252 65.4219 29.6252 64.4306 29.0001C63.4394 28.5001 61.9525 27.6251 60.5895 26.0001C61.9525 25 64.0589 22.875 65.1741 21.5C65.7936 20.8749 66.1653 20.1249 66.2892 19.6249C66.4131 19.1249 66.537 18.2499 66.537 16.9998V6.7496L68.8912 4.74955V30.3752ZM83.1404 25.6251L82.5209 26.1251C80.6623 27.7501 78.5559 28.7501 76.8212 29.5002C75.0865 30.2502 73.1041 30.6252 70.9977 30.6252H69.8825V5.62457C71.865 6.62459 72.8562 7.12461 74.9626 7.12461C77.9364 7.12461 80.6623 4.99955 82.7687 1.87448L81.9014 1.49947C80.7862 2.8745 79.5472 3.49952 78.0603 3.49952C76.3256 3.49952 74.0953 2.49949 71.4933 0.749451L61.2091 9.37466V19.7499C61.2091 22.5 61.0852 23.375 60.9613 23.875C60.7135 24.375 59.8461 25.25 59.8461 25.25C57.7397 22.625 56.7485 19.6249 56.7485 16.4998C56.7485 13.8748 57.4919 11.4997 58.8549 9.24966C59.97 7.49962 61.333 5.74957 63.5633 4.12453L63.8111 3.87453L63.1916 3.24951V3.49952C59.7222 5.62457 56.9963 7.49961 55.3855 9.74967C53.403 12.6247 52.4117 15.7498 52.4117 19.1249C52.4117 21.875 53.1552 24.5 54.5181 27.1251C55.8811 29.7502 57.8636 31.7502 60.4656 33.1252C62.9438 34.5003 65.6697 35.2503 68.5195 35.2503C70.3781 35.2503 72.3606 34.8753 74.3431 34.2503C76.3256 33.6252 77.9364 32.7502 79.2994 31.6252C80.6623 30.5002 81.9014 29.0001 83.2644 26.8751L83.76 26.1251L83.1404 25.6251Z" fill="black"/>
<path d="M169.38 10.1243L164.3 14.6244C164.3 13.8744 163.928 13.2494 163.68 12.7494C163.185 11.9994 162.193 11.1244 160.83 10.1243L155.626 14.6244L156.246 15.3745C156.865 14.7494 157.361 14.3744 157.733 14.3744C158.104 14.3744 158.352 14.6244 158.6 14.9995C158.848 15.3745 158.972 16.1245 158.972 17.3745V26.9997C158.972 28.3748 158.848 29.2498 158.724 29.7498C158.476 30.2498 158.104 30.7498 157.361 31.1248V31.6249C158.352 31.8749 159.591 32.4999 160.459 32.9999C161.326 33.4999 162.317 34.2499 163.556 35.375L169.008 31.2499L168.389 30.4998L167.15 31.4999L164.3 29.3748V15.7495L165.911 14.2494C167.15 15.7495 167.893 16.7495 169.256 16.7495C171.486 16.7495 174.708 13.1244 174.708 13.1244L174.336 12.6244C172.106 14.4994 170.495 11.2494 169.38 10.1243Z" fill="black"/>
<path d="M11.895 29.0001C10.9037 28.5001 9.54077 27.6251 8.0539 26.0001C9.41686 25 11.5233 22.875 12.6384 21.5C13.2579 20.8749 13.6297 20.1249 13.7536 19.6249C13.8775 19.2499 13.8775 18.6249 14.0014 17.8749C14.7448 18.3749 15.4883 18.7499 16.3556 19.1249V30.5002C14.7448 30.2502 13.0101 29.6252 11.895 29.0001ZM16.3556 4.62454V13.9998L14.1253 15.9998V6.62459L16.3556 4.62454ZM30.6048 25.6251L29.9853 26.1251C28.1267 27.7501 26.0203 28.7501 24.2856 29.5002C22.5509 30.2502 20.5684 30.6252 18.462 30.6252H17.3468V19.4999C17.9664 19.7499 18.7098 19.8749 19.3293 19.8749C21.9314 19.8749 24.5334 17.2499 26.392 14.6248L25.6486 14.1248C24.7812 15.2498 23.79 15.9998 22.5509 15.9998C21.1879 15.9998 19.4533 15.2498 17.4708 13.9998V5.74957C19.4533 6.7496 20.4445 7.24961 22.5509 7.24961C25.5247 7.24961 28.2506 5.12456 30.357 1.99948L29.4897 1.49947C28.3745 2.8745 27.1354 3.49952 25.6486 3.49952C23.9139 3.49952 21.6836 2.49949 19.0815 0.749451L8.79733 9.37466V19.7499C8.79733 22.5 8.67343 23.375 8.54952 23.875C8.30171 24.375 7.43437 25.25 7.43437 25.25C5.32796 22.625 4.33671 19.6249 4.33671 16.4998C4.33671 13.8748 5.08015 11.4997 6.44312 9.24966C7.55827 7.49962 8.92124 5.74957 11.1515 4.12453L11.3994 3.87453L11.0276 3.37451L10.7798 3.49952C7.31046 5.62457 4.58452 7.49961 2.97375 9.74967C0.991248 12.6247 0 15.7498 0 19.1249C0 21.875 0.743435 24.5 2.1064 27.1251C3.46937 29.7502 5.45187 31.7502 8.0539 33.1252C10.532 34.5003 13.2579 35.2503 16.1078 35.2503C17.9664 35.2503 19.9489 34.8753 21.9314 34.2503C23.9139 33.6252 25.5247 32.7502 26.8876 31.6252C28.2506 30.5002 29.4896 29.0001 30.8526 26.8751L31.3482 26.1251L30.6048 25.6251Z" fill="black"/>
<path d="M133.199 13.8744L135.553 11.4994L136.173 12.1244C135.306 12.8744 134.686 13.4994 134.438 13.9994C134.19 14.4994 133.943 14.8744 133.819 15.3745C133.695 15.8745 133.695 16.7495 133.695 18.2495V28.4998C133.695 29.7498 133.819 30.6248 134.066 30.9998C134.314 31.3749 134.562 31.6249 134.81 31.6249C135.182 31.6249 135.306 31.3749 136.173 30.7498L136.668 31.3749L131.588 35.375C130.473 34.4999 129.482 33.6249 129.234 33.1249C128.738 32.2499 128.367 31.4999 128.367 30.4998V16.3745L125.889 14.2494L123.039 16.8745V29.8748L124.897 31.8749L120.437 35.25L115.976 31.8749L117.835 29.8748V18.4995C117.835 16.8745 117.711 16.3745 117.463 15.9995C117.215 15.4995 116.472 14.8744 115.481 14.1244L112.631 16.6245V29.8748L114.489 31.8749L110.029 35.25L105.444 31.8749L107.427 29.8748V17.6245C107.427 16.3745 107.179 15.4995 106.807 14.8744C106.559 14.4994 106.311 14.2494 106.064 14.2494C105.816 14.2494 105.196 14.6244 104.453 15.2495L103.957 14.4994L109.285 10.1243C110.276 10.8743 111.02 11.4994 111.392 11.8744C111.887 12.3744 112.259 12.8744 112.383 13.3744C112.507 13.8744 112.631 14.3744 112.631 15.4995L119.074 10.1243C120.561 11.3744 121.552 12.2494 122.048 12.9994C122.543 13.7494 122.915 14.3744 123.039 15.7495L129.234 10.1243L133.199 13.8744Z" fill="black"/>
<path d="M189.328 5.25085C190.567 6.75088 191.93 8.37592 193.293 8.37592C195.523 8.37592 198.745 4.75083 198.745 4.75083L198.373 4.25082C196.267 6.12587 194.656 2.87579 193.417 1.75076L189.328 5.25085Z" fill="black"/>
<path d="M198.498 30.6248C197.754 31.2499 197.507 31.4999 197.135 31.4999C196.887 31.4999 196.639 31.2499 196.391 30.8748C196.144 30.4998 195.896 29.6248 195.896 28.3748V15.7495L197.754 13.8744L193.17 10.1243L188.709 13.8744L190.568 15.7495V30.4998C190.568 31.4999 190.94 32.2499 191.435 33.1249C191.807 33.7499 192.674 34.4999 193.789 35.375L198.87 31.3749L198.498 30.6248Z" fill="black"/>
</svg>
